<svg width="217" height="102" viewBox="0 0 217 102" fill="none" xmlns="http://www.w3.org/2000/svg">
<path d="M34.5794 95C34.1794 95 33.8594 94.8933 33.6194 94.68C33.406 94.44 33.2594 94.1467 33.1794 93.8L28.4194 68.16C28.4194 68.08 28.406 68.0133 28.3794 67.96C28.3794 67.9067 28.3794 67.8667 28.3794 67.84C28.3794 67.6 28.4594 67.4 28.6194 67.24C28.806 67.08 29.006 67 29.2194 67H32.7394C33.406 67 33.7794 67.2667 33.8594 67.8L37.1794 85.92L40.7794 74.2C40.8594 73.9867 40.9927 73.7733 41.1794 73.56C41.3927 73.32 41.6994 73.2 42.0994 73.2H44.2594C44.686 73.2 44.9927 73.32 45.1794 73.56C45.366 73.7733 45.486 73.9867 45.5394 74.2L49.1794 85.88L52.4994 67.8C52.5794 67.2667 52.9527 67 53.6194 67H57.1394C57.3527 67 57.5394 67.08 57.6994 67.24C57.8594 67.4 57.9394 67.6 57.9394 67.84C57.9394 67.8667 57.9394 67.9067 57.9394 67.96C57.9394 68.0133 57.926 68.08 57.8994 68.16L53.1394 93.8C53.086 94.1467 52.9394 94.44 52.6994 94.68C52.4594 94.8933 52.1394 95 51.7394 95H49.0594C48.6594 95 48.3394 94.8933 48.0994 94.68C47.886 94.4667 47.7394 94.24 47.6594 94L43.1794 80.64L38.6994 94C38.5927 94.24 38.4327 94.4667 38.2194 94.68C38.006 94.8933 37.686 95 37.2594 95H34.5794ZM73.0831 95.4C70.7098 95.4 68.6698 95.0133 66.9631 94.24C65.2565 93.44 63.9231 92.2267 62.9631 90.6C62.0031 88.9467 61.4831 86.8933 61.4031 84.44C61.3765 83.2933 61.3631 82.16 61.3631 81.04C61.3631 79.92 61.3765 78.7733 61.4031 77.6C61.4831 75.1733 62.0165 73.1467 63.0031 71.52C63.9898 69.8933 65.3365 68.6667 67.0431 67.84C68.7765 67.0133 70.7898 66.6 73.0831 66.6C75.3765 66.6 77.3898 67.0133 79.1231 67.84C80.8565 68.6667 82.2165 69.8933 83.2031 71.52C84.1898 73.1467 84.7231 75.1733 84.8031 77.6C84.8565 78.7733 84.8831 79.92 84.8831 81.04C84.8831 82.16 84.8565 83.2933 84.8031 84.44C84.7231 86.8933 84.2031 88.9467 83.2431 90.6C82.2831 92.2267 80.9365 93.44 79.2031 94.24C77.4965 95.0133 75.4565 95.4 73.0831 95.4ZM73.0831 90.8C74.8165 90.8 76.2298 90.2933 77.3231 89.28C78.4165 88.24 79.0031 86.56 79.0831 84.24C79.1365 83.0667 79.1631 81.9867 79.1631 81C79.1631 79.9867 79.1365 78.9067 79.0831 77.76C79.0298 76.2133 78.7365 74.96 78.2031 74C77.6965 73.0133 77.0031 72.3067 76.1231 71.88C75.2431 71.4267 74.2298 71.2 73.0831 71.2C71.9631 71.2 70.9631 71.4267 70.0831 71.88C69.2031 72.3067 68.4965 73.0133 67.9631 74C67.4565 74.96 67.1765 76.2133 67.1231 77.76C67.0965 78.9067 67.0831 79.9867 67.0831 81C67.0831 81.9867 67.0965 83.0667 67.1231 84.24C67.2031 86.56 67.7898 88.24 68.8831 89.28C69.9765 90.2933 71.3765 90.8 73.0831 90.8ZM91.0956 95C90.829 95 90.6023 94.9067 90.4156 94.72C90.229 94.5333 90.1356 94.3067 90.1356 94.04V68C90.1356 67.7067 90.229 67.4667 90.4156 67.28C90.6023 67.0933 90.829 67 91.0956 67H101.456C104.682 67 107.229 67.7467 109.096 69.24C110.962 70.7333 111.896 72.9067 111.896 75.76C111.896 77.7333 111.402 79.3733 110.416 80.68C109.456 81.9867 108.162 82.9333 106.536 83.52L112.376 93.72C112.456 93.88 112.496 94.0267 112.496 94.16C112.496 94.4 112.402 94.6 112.216 94.76C112.056 94.92 111.869 95 111.656 95H108.016C107.562 95 107.216 94.88 106.976 94.64C106.736 94.4 106.549 94.16 106.416 93.92L101.256 84.44H95.6956V94.04C95.6956 94.3067 95.6023 94.5333 95.4156 94.72C95.2556 94.9067 95.029 95 94.7356 95H91.0956ZM95.6956 79.92H101.336C102.962 79.92 104.176 79.56 104.976 78.84C105.776 78.0933 106.176 77.0533 106.176 75.72C106.176 74.3867 105.776 73.3467 104.976 72.6C104.202 71.8267 102.989 71.44 101.336 71.44H95.6956V79.92ZM118.01 95C117.743 95 117.516 94.9067 117.33 94.72C117.143 94.5333 117.05 94.3067 117.05 94.04V68C117.05 67.7067 117.143 67.4667 117.33 67.28C117.516 67.0933 117.743 67 118.01 67H127.77C130.463 67 132.676 67.4133 134.41 68.24C136.17 69.0667 137.49 70.2933 138.37 71.92C139.276 73.5467 139.743 75.5333 139.77 77.88C139.823 79.0533 139.85 80.0933 139.85 81C139.85 81.9067 139.823 82.9333 139.77 84.08C139.716 86.56 139.263 88.6133 138.41 90.24C137.556 91.84 136.263 93.04 134.53 93.84C132.823 94.6133 130.636 95 127.97 95H118.01ZM122.61 90.4H127.77C129.263 90.4 130.476 90.1867 131.41 89.76C132.343 89.3333 133.023 88.6533 133.45 87.72C133.903 86.76 134.143 85.5067 134.17 83.96C134.196 83.16 134.21 82.4667 134.21 81.88C134.236 81.2667 134.236 80.6667 134.21 80.08C134.21 79.4667 134.196 78.7733 134.17 78C134.116 75.8133 133.57 74.2 132.53 73.16C131.49 72.12 129.836 71.6 127.57 71.6H122.61V90.4ZM146.135 95C145.868 95 145.641 94.9067 145.455 94.72C145.268 94.5333 145.175 94.3067 145.175 94.04V67.96C145.175 67.6933 145.268 67.4667 145.455 67.28C145.641 67.0933 145.868 67 146.135 67H149.855C150.121 67 150.348 67.0933 150.535 67.28C150.721 67.4667 150.815 67.6933 150.815 67.96V90.24H163.495C163.788 90.24 164.028 90.3333 164.215 90.52C164.401 90.7067 164.495 90.9467 164.495 91.24V94.04C164.495 94.3067 164.401 94.5333 164.215 94.72C164.028 94.9067 163.788 95 163.495 95H146.135ZM169.338 95C169.071 95 168.844 94.9067 168.658 94.72C168.471 94.5333 168.378 94.3067 168.378 94.04V68C168.378 67.7067 168.471 67.4667 168.658 67.28C168.844 67.0933 169.071 67 169.338 67H186.938C187.231 67 187.471 67.0933 187.658 67.28C187.844 67.4667 187.938 67.7067 187.938 68V70.64C187.938 70.9067 187.844 71.1333 187.658 71.32C187.471 71.5067 187.231 71.6 186.938 71.6H173.778V78.68H186.058C186.351 78.68 186.591 78.7733 186.778 78.96C186.964 79.12 187.058 79.3467 187.058 79.64V82.12C187.058 82.4133 186.964 82.6533 186.778 82.84C186.591 83 186.351 83.08 186.058 83.08H173.778V90.4H187.258C187.551 90.4 187.791 90.4933 187.978 90.68C188.164 90.8667 188.258 91.1067 188.258 91.4V94.04C188.258 94.3067 188.164 94.5333 187.978 94.72C187.791 94.9067 187.551 95 187.258 95H169.338Z" fill="white"/>
<rect x="48" y="32.2647" width="27.0988" height="27.0988" rx="2" transform="rotate(-45 48 32.2647)" fill="white" fill-opacity="0.8"/>
<rect x="84" y="24.7487" width="35" height="35" rx="2" transform="rotate(-45 84 24.7487)" fill="#ACDEAB"/>
<rect x="131.103" y="32.2647" width="27.0988" height="27.0988" rx="2" transform="rotate(-45 131.103 32.2647)" fill="white" fill-opacity="0.8"/>
</svg>
