<svg width="71" height="78" viewBox="0 0 71 78" fill="none" xmlns="http://www.w3.org/2000/svg">
<path d="M24.0918 0H66.0002C68.7616 0 71.0002 2.23858 71.0002 5V72.0298C71.0002 74.7912 68.7616 77.0298 66.0002 77.0298H29.0918C26.3304 77.0298 24.0918 74.7912 24.0918 72.0298V0Z" fill="white"/>
<path d="M0.637451 4.99999C0.637451 2.23857 2.87603 0 5.63745 0H24.0916V38.9119H5.63746C2.87603 38.9119 0.637451 36.6734 0.637451 33.9119V4.99999Z" fill="white"/>
<path d="M21.4882 23.1543V25H16.1835V23.1543H21.4882ZM17.038 15.0469V25H14.6386V15.0469H17.038ZM20.8046 18.998V20.7822H16.1835V18.998H20.8046ZM21.5087 15.0469V16.8994H16.1835V15.0469H21.5087ZM31.485 15.0469V25H29.0925L25.572 18.8066V25H23.1725V15.0469H25.572L29.0925 21.2402V15.0469H31.485ZM38.3169 15.0469V25H35.9175V15.0469H38.3169ZM41.311 15.0469V16.8994H32.9917V15.0469H41.311ZM49.8792 23.1543V25H44.5745V23.1543H49.8792ZM45.429 15.0469V25H43.0296V15.0469H45.429ZM49.1956 18.998V20.7822H44.5745V18.998H49.1956ZM49.8997 15.0469V16.8994H44.5745V15.0469H49.8997ZM51.5636 15.0469H55.4806C56.2462 15.0469 56.9115 15.1608 57.4767 15.3887C58.0418 15.6165 58.477 15.9538 58.7823 16.4004C59.0922 16.847 59.2472 17.3984 59.2472 18.0547C59.2472 18.6243 59.1583 19.1006 58.9806 19.4834C58.8028 19.8662 58.5544 20.1829 58.2354 20.4336C57.921 20.6797 57.5541 20.8825 57.1349 21.042L56.3487 21.4863H53.0606L53.047 19.6338H55.4806C55.7859 19.6338 56.0388 19.5791 56.2393 19.4697C56.4399 19.3604 56.5903 19.2054 56.6905 19.0049C56.7953 18.7998 56.8477 18.556 56.8477 18.2734C56.8477 17.9863 56.7953 17.7402 56.6905 17.5352C56.5857 17.3301 56.4308 17.1729 56.2257 17.0635C56.0252 16.9541 55.7768 16.8994 55.4806 16.8994H53.963V25H51.5636V15.0469ZM57.0118 25L54.8106 20.5977L57.3536 20.584L59.5821 24.8975V25H57.0118Z" fill="#5D78B1"/>
</svg>
