<svg width="217" height="89" viewBox="0 0 217 89" fill="none" xmlns="http://www.w3.org/2000/svg">
<path d="M34.5794 82C34.1794 82 33.8594 81.8933 33.6194 81.68C33.406 81.44 33.2594 81.1467 33.1794 80.8L28.4194 55.16C28.4194 55.08 28.406 55.0133 28.3794 54.96C28.3794 54.9067 28.3794 54.8667 28.3794 54.84C28.3794 54.6 28.4594 54.4 28.6194 54.24C28.806 54.08 29.006 54 29.2194 54H32.7394C33.406 54 33.7794 54.2667 33.8594 54.8L37.1794 72.92L40.7794 61.2C40.8594 60.9867 40.9927 60.7733 41.1794 60.56C41.3927 60.32 41.6994 60.2 42.0994 60.2H44.2594C44.686 60.2 44.9927 60.32 45.1794 60.56C45.366 60.7733 45.486 60.9867 45.5394 61.2L49.1794 72.88L52.4994 54.8C52.5794 54.2667 52.9527 54 53.6194 54H57.1394C57.3527 54 57.5394 54.08 57.6994 54.24C57.8594 54.4 57.9394 54.6 57.9394 54.84C57.9394 54.8667 57.9394 54.9067 57.9394 54.96C57.9394 55.0133 57.926 55.08 57.8994 55.16L53.1394 80.8C53.086 81.1467 52.9394 81.44 52.6994 81.68C52.4594 81.8933 52.1394 82 51.7394 82H49.0594C48.6594 82 48.3394 81.8933 48.0994 81.68C47.886 81.4667 47.7394 81.24 47.6594 81L43.1794 67.64L38.6994 81C38.5927 81.24 38.4327 81.4667 38.2194 81.68C38.006 81.8933 37.686 82 37.2594 82H34.5794ZM73.0831 82.4C70.7098 82.4 68.6698 82.0133 66.9631 81.24C65.2565 80.44 63.9231 79.2267 62.9631 77.6C62.0031 75.9467 61.4831 73.8933 61.4031 71.44C61.3765 70.2933 61.3631 69.16 61.3631 68.04C61.3631 66.92 61.3765 65.7733 61.4031 64.6C61.4831 62.1733 62.0165 60.1467 63.0031 58.52C63.9898 56.8933 65.3365 55.6667 67.0431 54.84C68.7765 54.0133 70.7898 53.6 73.0831 53.6C75.3765 53.6 77.3898 54.0133 79.1231 54.84C80.8565 55.6667 82.2165 56.8933 83.2031 58.52C84.1898 60.1467 84.7231 62.1733 84.8031 64.6C84.8565 65.7733 84.8831 66.92 84.8831 68.04C84.8831 69.16 84.8565 70.2933 84.8031 71.44C84.7231 73.8933 84.2031 75.9467 83.2431 77.6C82.2831 79.2267 80.9365 80.44 79.2031 81.24C77.4965 82.0133 75.4565 82.4 73.0831 82.4ZM73.0831 77.8C74.8165 77.8 76.2298 77.2933 77.3231 76.28C78.4165 75.24 79.0031 73.56 79.0831 71.24C79.1365 70.0667 79.1631 68.9867 79.1631 68C79.1631 66.9867 79.1365 65.9067 79.0831 64.76C79.0298 63.2133 78.7365 61.96 78.2031 61C77.6965 60.0133 77.0031 59.3067 76.1231 58.88C75.2431 58.4267 74.2298 58.2 73.0831 58.2C71.9631 58.2 70.9631 58.4267 70.0831 58.88C69.2031 59.3067 68.4965 60.0133 67.9631 61C67.4565 61.96 67.1765 63.2133 67.1231 64.76C67.0965 65.9067 67.0831 66.9867 67.0831 68C67.0831 68.9867 67.0965 70.0667 67.1231 71.24C67.2031 73.56 67.7898 75.24 68.8831 76.28C69.9765 77.2933 71.3765 77.8 73.0831 77.8ZM91.0956 82C90.829 82 90.6023 81.9067 90.4156 81.72C90.229 81.5333 90.1356 81.3067 90.1356 81.04V55C90.1356 54.7067 90.229 54.4667 90.4156 54.28C90.6023 54.0933 90.829 54 91.0956 54H101.456C104.682 54 107.229 54.7467 109.096 56.24C110.962 57.7333 111.896 59.9067 111.896 62.76C111.896 64.7333 111.402 66.3733 110.416 67.68C109.456 68.9867 108.162 69.9333 106.536 70.52L112.376 80.72C112.456 80.88 112.496 81.0267 112.496 81.16C112.496 81.4 112.402 81.6 112.216 81.76C112.056 81.92 111.869 82 111.656 82H108.016C107.562 82 107.216 81.88 106.976 81.64C106.736 81.4 106.549 81.16 106.416 80.92L101.256 71.44H95.6956V81.04C95.6956 81.3067 95.6023 81.5333 95.4156 81.72C95.2556 81.9067 95.029 82 94.7356 82H91.0956ZM95.6956 66.92H101.336C102.962 66.92 104.176 66.56 104.976 65.84C105.776 65.0933 106.176 64.0533 106.176 62.72C106.176 61.3867 105.776 60.3467 104.976 59.6C104.202 58.8267 102.989 58.44 101.336 58.44H95.6956V66.92ZM118.01 82C117.743 82 117.516 81.9067 117.33 81.72C117.143 81.5333 117.05 81.3067 117.05 81.04V55C117.05 54.7067 117.143 54.4667 117.33 54.28C117.516 54.0933 117.743 54 118.01 54H127.77C130.463 54 132.676 54.4133 134.41 55.24C136.17 56.0667 137.49 57.2933 138.37 58.92C139.276 60.5467 139.743 62.5333 139.77 64.88C139.823 66.0533 139.85 67.0933 139.85 68C139.85 68.9067 139.823 69.9333 139.77 71.08C139.716 73.56 139.263 75.6133 138.41 77.24C137.556 78.84 136.263 80.04 134.53 80.84C132.823 81.6133 130.636 82 127.97 82H118.01ZM122.61 77.4H127.77C129.263 77.4 130.476 77.1867 131.41 76.76C132.343 76.3333 133.023 75.6533 133.45 74.72C133.903 73.76 134.143 72.5067 134.17 70.96C134.196 70.16 134.21 69.4667 134.21 68.88C134.236 68.2667 134.236 67.6667 134.21 67.08C134.21 66.4667 134.196 65.7733 134.17 65C134.116 62.8133 133.57 61.2 132.53 60.16C131.49 59.12 129.836 58.6 127.57 58.6H122.61V77.4ZM146.135 82C145.868 82 145.641 81.9067 145.455 81.72C145.268 81.5333 145.175 81.3067 145.175 81.04V54.96C145.175 54.6933 145.268 54.4667 145.455 54.28C145.641 54.0933 145.868 54 146.135 54H149.855C150.121 54 150.348 54.0933 150.535 54.28C150.721 54.4667 150.815 54.6933 150.815 54.96V77.24H163.495C163.788 77.24 164.028 77.3333 164.215 77.52C164.401 77.7067 164.495 77.9467 164.495 78.24V81.04C164.495 81.3067 164.401 81.5333 164.215 81.72C164.028 81.9067 163.788 82 163.495 82H146.135ZM169.338 82C169.071 82 168.844 81.9067 168.658 81.72C168.471 81.5333 168.378 81.3067 168.378 81.04V55C168.378 54.7067 168.471 54.4667 168.658 54.28C168.844 54.0933 169.071 54 169.338 54H186.938C187.231 54 187.471 54.0933 187.658 54.28C187.844 54.4667 187.938 54.7067 187.938 55V57.64C187.938 57.9067 187.844 58.1333 187.658 58.32C187.471 58.5067 187.231 58.6 186.938 58.6H173.778V65.68H186.058C186.351 65.68 186.591 65.7733 186.778 65.96C186.964 66.12 187.058 66.3467 187.058 66.64V69.12C187.058 69.4133 186.964 69.6533 186.778 69.84C186.591 70 186.351 70.08 186.058 70.08H173.778V77.4H187.258C187.551 77.4 187.791 77.4933 187.978 77.68C188.164 77.8667 188.258 78.1067 188.258 78.4V81.04C188.258 81.3067 188.164 81.5333 187.978 81.72C187.791 81.9067 187.551 82 187.258 82H169.338Z" fill="white"/>
<rect x="48" y="19.2647" width="27.0988" height="27.0988" rx="2" transform="rotate(-45 48 19.2647)" fill="white" fill-opacity="0.8"/>
<rect x="90.4548" y="19.2647" width="27.0988" height="27.0988" rx="2" transform="rotate(-45 90.4548 19.2647)" fill="#ACDEAB"/>
<rect x="131.103" y="19.2647" width="27.0988" height="27.0988" rx="2" transform="rotate(-45 131.103 19.2647)" fill="white" fill-opacity="0.8"/>
</svg>
